# xmcd CD database file
# Copyright (C) 1996 Ti Kan
#
# Track frame offsets:
#  150
#  14475
#  26968
#  39645
#  54160
#  67905
#  80930
#  95223
#  109730
#  123795
#  135040
#  148888
#  162830
#  175568
#
# Disc length: 2534 seconds
#
# Revision: 2
# Processed by: cddbd v1.4b41PL1 Copyright (c) Steve Scherf et al.
# Submitted via: CDWizzard Release:4.12
#
DISCID=b909e40e
DTITLE=Kokomo Arnold and Casey Bill Weldon - Bottleneck Guitar Trendsett
DTITLE=ers Of The 1930s
DYEAR=1900
DGENRE=
TTITLE0=You Just As Well Let Her Go
TTITLE1=Go Ahead, Buddy
TTITLE2=Lady Doctor Blues
TTITLE3=The Big Boat
TTITLE4=Hitch Me To Your Buggy And Drive Me Like A Mule
TTITLE5=You Shouldn't Do That
TTITLE6=Back Door Blues
TTITLE7=The Twelves
TTITLE8=I'll Be Up Someday
TTITLE9=Busy Bootin'
TTITLE10=Sagefield Woman Blues
TTITLE11=Back To The Woods
TTITLE12=Salty Dog
TTITLE13=Feels So Good
EXTD=
EXTT0=
EXTT1=
EXTT2=
EXTT3=
EXTT4=
EXTT5=
EXTT6=
EXTT7=
EXTT8=
EXTT9=
EXTT10=
EXTT11=
EXTT12=
EXTT13=
PLAYORDER=
